<svg
width="96"
height="30"
viewBox="0 0 96 30"
fill="none"
xmlns="http://www.w3.org/2000/svg"
>
<path
  d="M38.749 9H37.2646L37.2744 8.2334H38.749C39.2568 8.2334 39.68 8.1276 40.0186 7.91602C40.3571 7.70117 40.611 7.40169 40.7803 7.01758C40.9528 6.63021 41.0391 6.17773 41.0391 5.66016V5.22559C41.0391 4.81868 40.9902 4.45736 40.8926 4.1416C40.7949 3.82259 40.6517 3.55404 40.4629 3.33594C40.2741 3.11458 40.043 2.94694 39.7695 2.83301C39.4993 2.71908 39.1885 2.66211 38.8369 2.66211H37.2354V1.89062H38.8369C39.3024 1.89062 39.7272 1.96875 40.1113 2.125C40.4954 2.27799 40.8258 2.50098 41.1025 2.79395C41.3825 3.08366 41.5973 3.43522 41.7471 3.84863C41.8968 4.25879 41.9717 4.72103 41.9717 5.23535V5.66016C41.9717 6.17448 41.8968 6.63835 41.7471 7.05176C41.5973 7.46191 41.3809 7.81185 41.0977 8.10156C40.8177 8.39128 40.4792 8.61426 40.082 8.77051C39.6882 8.9235 39.2438 9 38.749 9ZM37.7676 1.89062V9H36.8252V1.89062H37.7676ZM43.0117 6.41699V6.30469C43.0117 5.92383 43.0671 5.57064 43.1777 5.24512C43.2884 4.91634 43.4479 4.63151 43.6562 4.39062C43.8646 4.14648 44.1169 3.95768 44.4131 3.82422C44.7093 3.6875 45.0413 3.61914 45.4092 3.61914C45.7803 3.61914 46.1139 3.6875 46.4102 3.82422C46.7096 3.95768 46.9635 4.14648 47.1719 4.39062C47.3835 4.63151 47.5446 4.91634 47.6553 5.24512C47.766 5.57064 47.8213 5.92383 47.8213 6.30469V6.41699C47.8213 6.79785 47.766 7.15104 47.6553 7.47656C47.5446 7.80208 47.3835 8.08691 47.1719 8.33105C46.9635 8.57194 46.7113 8.76074 46.415 8.89746C46.1221 9.03092 45.79 9.09766 45.4189 9.09766C45.0479 9.09766 44.7142 9.03092 44.418 8.89746C44.1217 8.76074 43.8678 8.57194 43.6562 8.33105C43.4479 8.08691 43.2884 7.80208 43.1777 7.47656C43.0671 7.15104 43.0117 6.79785 43.0117 6.41699ZM43.915 6.30469V6.41699C43.915 6.68066 43.946 6.92969 44.0078 7.16406C44.0697 7.39518 44.1624 7.60026 44.2861 7.7793C44.4131 7.95833 44.571 8.09993 44.7598 8.2041C44.9486 8.30501 45.1683 8.35547 45.4189 8.35547C45.6663 8.35547 45.8828 8.30501 46.0684 8.2041C46.2572 8.09993 46.4134 7.95833 46.5371 7.7793C46.6608 7.60026 46.7536 7.39518 46.8154 7.16406C46.8805 6.92969 46.9131 6.68066 46.9131 6.41699V6.30469C46.9131 6.04427 46.8805 5.7985 46.8154 5.56738C46.7536 5.33301 46.6592 5.1263 46.5322 4.94727C46.4085 4.76497 46.2523 4.62174 46.0635 4.51758C45.8779 4.41341 45.6598 4.36133 45.4092 4.36133C45.1618 4.36133 44.9437 4.41341 44.7549 4.51758C44.5693 4.62174 44.4131 4.76497 44.2861 4.94727C44.1624 5.1263 44.0697 5.33301 44.0078 5.56738C43.946 5.7985 43.915 6.04427 43.915 6.30469ZM50.292 8.0625L51.6494 3.7168H52.2451L52.1279 4.58105L50.7461 9H50.165L50.292 8.0625ZM49.3789 3.7168L50.5361 8.11133L50.6191 9H50.0088L48.4756 3.7168H49.3789ZM53.5439 8.07715L54.6475 3.7168H55.5459L54.0127 9H53.4072L53.5439 8.07715ZM52.377 3.7168L53.7051 7.98926L53.8564 9H53.2803L51.8594 4.57129L51.7422 3.7168H52.377ZM57.377 4.84473V9H56.4736V3.7168H57.3281L57.377 4.84473ZM57.1621 6.1582L56.7861 6.14355C56.7894 5.78223 56.8431 5.44857 56.9473 5.14258C57.0514 4.83333 57.1979 4.56478 57.3867 4.33691C57.5755 4.10905 57.8001 3.93327 58.0605 3.80957C58.3242 3.68262 58.6156 3.61914 58.9346 3.61914C59.195 3.61914 59.4294 3.65495 59.6377 3.72656C59.846 3.79492 60.0234 3.9056 60.1699 4.05859C60.3197 4.21159 60.4336 4.41016 60.5117 4.6543C60.5898 4.89518 60.6289 5.18978 60.6289 5.53809V9H59.7207V5.52832C59.7207 5.25163 59.68 5.03027 59.5986 4.86426C59.5173 4.69499 59.3984 4.57292 59.2422 4.49805C59.0859 4.41992 58.8939 4.38086 58.666 4.38086C58.4414 4.38086 58.2363 4.42806 58.0508 4.52246C57.8685 4.61686 57.7106 4.74707 57.5771 4.91309C57.4469 5.0791 57.3444 5.26953 57.2695 5.48438C57.1979 5.69596 57.1621 5.92057 57.1621 6.1582ZM62.9824 1.5V9H62.0742V1.5H62.9824ZM64.1934 6.41699V6.30469C64.1934 5.92383 64.2487 5.57064 64.3594 5.24512C64.4701 4.91634 64.6296 4.63151 64.8379 4.39062C65.0462 4.14648 65.2985 3.95768 65.5947 3.82422C65.891 3.6875 66.223 3.61914 66.5908 3.61914C66.9619 3.61914 67.2956 3.6875 67.5918 3.82422C67.8913 3.95768 68.1452 4.14648 68.3535 4.39062C68.5651 4.63151 68.7262 4.91634 68.8369 5.24512C68.9476 5.57064 69.0029 5.92383 69.0029 6.30469V6.41699C69.0029 6.79785 68.9476 7.15104 68.8369 7.47656C68.7262 7.80208 68.5651 8.08691 68.3535 8.33105C68.1452 8.57194 67.8929 8.76074 67.5967 8.89746C67.3037 9.03092 66.9717 9.09766 66.6006 9.09766C66.2295 9.09766 65.8958 9.03092 65.5996 8.89746C65.3034 8.76074 65.0495 8.57194 64.8379 8.33105C64.6296 8.08691 64.4701 7.80208 64.3594 7.47656C64.2487 7.15104 64.1934 6.79785 64.1934 6.41699ZM65.0967 6.30469V6.41699C65.0967 6.68066 65.1276 6.92969 65.1895 7.16406C65.2513 7.39518 65.3441 7.60026 65.4678 7.7793C65.5947 7.95833 65.7526 8.09993 65.9414 8.2041C66.1302 8.30501 66.3499 8.35547 66.6006 8.35547C66.848 8.35547 67.0645 8.30501 67.25 8.2041C67.4388 8.09993 67.5951 7.95833 67.7188 7.7793C67.8424 7.60026 67.9352 7.39518 67.9971 7.16406C68.0622 6.92969 68.0947 6.68066 68.0947 6.41699V6.30469C68.0947 6.04427 68.0622 5.7985 67.9971 5.56738C67.9352 5.33301 67.8408 5.1263 67.7139 4.94727C67.5902 4.76497 67.4339 4.62174 67.2451 4.51758C67.0596 4.41341 66.8415 4.36133 66.5908 4.36133C66.3434 4.36133 66.1253 4.41341 65.9365 4.51758C65.751 4.62174 65.5947 4.76497 65.4678 4.94727C65.3441 5.1263 65.2513 5.33301 65.1895 5.56738C65.1276 5.7985 65.0967 6.04427 65.0967 6.30469ZM73.251 8.09668V5.37695C73.251 5.16862 73.2087 4.98796 73.124 4.83496C73.0426 4.67871 72.9189 4.55827 72.7529 4.47363C72.5869 4.389 72.3818 4.34668 72.1377 4.34668C71.9098 4.34668 71.7096 4.38574 71.5371 4.46387C71.3678 4.54199 71.2344 4.64453 71.1367 4.77148C71.0423 4.89844 70.9951 5.03516 70.9951 5.18164H70.0918C70.0918 4.99284 70.1406 4.80566 70.2383 4.62012C70.3359 4.43457 70.4759 4.26693 70.6582 4.11719C70.8438 3.96419 71.0651 3.84375 71.3223 3.75586C71.5827 3.66471 71.8724 3.61914 72.1914 3.61914C72.5755 3.61914 72.9141 3.68424 73.207 3.81445C73.5033 3.94466 73.7344 4.1416 73.9004 4.40527C74.0697 4.66569 74.1543 4.99284 74.1543 5.38672V7.84766C74.1543 8.02344 74.1689 8.21061 74.1982 8.40918C74.2308 8.60775 74.278 8.77865 74.3398 8.92188V9H73.3975C73.3519 8.89583 73.3161 8.75749 73.29 8.58496C73.264 8.40918 73.251 8.24642 73.251 8.09668ZM73.4072 5.79688L73.417 6.43164H72.5039C72.2467 6.43164 72.0173 6.4528 71.8154 6.49512C71.6136 6.53418 71.4443 6.5944 71.3076 6.67578C71.1709 6.75716 71.0667 6.8597 70.9951 6.9834C70.9235 7.10384 70.8877 7.24544 70.8877 7.4082C70.8877 7.57422 70.9251 7.72559 71 7.8623C71.0749 7.99902 71.1872 8.10807 71.3369 8.18945C71.4899 8.26758 71.6771 8.30664 71.8984 8.30664C72.1751 8.30664 72.4193 8.24805 72.6309 8.13086C72.8424 8.01367 73.0101 7.87044 73.1338 7.70117C73.2607 7.5319 73.3291 7.36751 73.3389 7.20801L73.7246 7.64258C73.7018 7.7793 73.64 7.93066 73.5391 8.09668C73.4382 8.2627 73.3031 8.4222 73.1338 8.5752C72.9678 8.72493 72.7692 8.85026 72.5381 8.95117C72.3102 9.04883 72.0531 9.09766 71.7666 9.09766C71.4085 9.09766 71.0944 9.02767 70.8242 8.8877C70.5573 8.74772 70.349 8.56055 70.1992 8.32617C70.0527 8.08854 69.9795 7.82324 69.9795 7.53027C69.9795 7.24707 70.0348 6.99805 70.1455 6.7832C70.2562 6.5651 70.4157 6.38444 70.624 6.24121C70.8324 6.09473 71.083 5.98405 71.376 5.90918C71.6689 5.83431 71.9961 5.79688 72.3574 5.79688H73.4072ZM78.9053 7.97461V1.5H79.8135V9H78.9834L78.9053 7.97461ZM75.3506 6.41699V6.31445C75.3506 5.91081 75.3994 5.5446 75.4971 5.21582C75.598 4.88379 75.7396 4.59896 75.9219 4.36133C76.1074 4.1237 76.3271 3.94141 76.5811 3.81445C76.8382 3.68424 77.1247 3.61914 77.4404 3.61914C77.7725 3.61914 78.0622 3.67773 78.3096 3.79492C78.5602 3.90885 78.7718 4.0765 78.9443 4.29785C79.1201 4.51595 79.2585 4.77962 79.3594 5.08887C79.4603 5.39811 79.5303 5.74805 79.5693 6.13867V6.58789C79.5335 6.97526 79.4635 7.32357 79.3594 7.63281C79.2585 7.94206 79.1201 8.20573 78.9443 8.42383C78.7718 8.64193 78.5602 8.80957 78.3096 8.92676C78.0589 9.04069 77.766 9.09766 77.4307 9.09766C77.1214 9.09766 76.8382 9.03092 76.5811 8.89746C76.3271 8.764 76.1074 8.57682 75.9219 8.33594C75.7396 8.09505 75.598 7.81185 75.4971 7.48633C75.3994 7.15755 75.3506 6.80111 75.3506 6.41699ZM76.2588 6.31445V6.41699C76.2588 6.68066 76.2848 6.92806 76.3369 7.15918C76.3923 7.3903 76.4769 7.59375 76.5908 7.76953C76.7048 7.94531 76.8496 8.08366 77.0254 8.18457C77.2012 8.28223 77.4111 8.33105 77.6553 8.33105C77.9548 8.33105 78.2005 8.26758 78.3926 8.14062C78.5879 8.01367 78.7441 7.84603 78.8613 7.6377C78.9785 7.42936 79.0697 7.20312 79.1348 6.95898V5.78223C79.0957 5.60319 79.0387 5.43066 78.9639 5.26465C78.8923 5.09538 78.7979 4.94564 78.6807 4.81543C78.5667 4.68197 78.4251 4.57617 78.2559 4.49805C78.0898 4.41992 77.8929 4.38086 77.665 4.38086C77.4176 4.38086 77.2044 4.43294 77.0254 4.53711C76.8496 4.63802 76.7048 4.77799 76.5908 4.95703C76.4769 5.13281 76.3923 5.33789 76.3369 5.57227C76.2848 5.80339 76.2588 6.05078 76.2588 6.31445ZM85.0479 9H84.1445V3.16016C84.1445 2.7793 84.2129 2.45866 84.3496 2.19824C84.4896 1.93457 84.6898 1.736 84.9502 1.60254C85.2106 1.46582 85.5199 1.39746 85.8779 1.39746C85.9821 1.39746 86.0863 1.40397 86.1904 1.41699C86.2979 1.43001 86.402 1.44954 86.5029 1.47559L86.4541 2.21289C86.3857 2.19661 86.3076 2.18522 86.2197 2.17871C86.1351 2.1722 86.0505 2.16895 85.9658 2.16895C85.7738 2.16895 85.6077 2.20801 85.4678 2.28613C85.3311 2.361 85.2269 2.47168 85.1553 2.61816C85.0837 2.76465 85.0479 2.94531 85.0479 3.16016V9ZM86.1709 3.7168V4.41016H83.3096V3.7168H86.1709ZM86.9375 6.41699V6.30469C86.9375 5.92383 86.9928 5.57064 87.1035 5.24512C87.2142 4.91634 87.3737 4.63151 87.582 4.39062C87.7904 4.14648 88.0426 3.95768 88.3389 3.82422C88.6351 3.6875 88.9671 3.61914 89.335 3.61914C89.7061 3.61914 90.0397 3.6875 90.3359 3.82422C90.6354 3.95768 90.8893 4.14648 91.0977 4.39062C91.3092 4.63151 91.4704 4.91634 91.5811 5.24512C91.6917 5.57064 91.7471 5.92383 91.7471 6.30469V6.41699C91.7471 6.79785 91.6917 7.15104 91.5811 7.47656C91.4704 7.80208 91.3092 8.08691 91.0977 8.33105C90.8893 8.57194 90.637 8.76074 90.3408 8.89746C90.0479 9.03092 89.7158 9.09766 89.3447 9.09766C88.9736 9.09766 88.64 9.03092 88.3438 8.89746C88.0475 8.76074 87.7936 8.57194 87.582 8.33105C87.3737 8.08691 87.2142 7.80208 87.1035 7.47656C86.9928 7.15104 86.9375 6.79785 86.9375 6.41699ZM87.8408 6.30469V6.41699C87.8408 6.68066 87.8717 6.92969 87.9336 7.16406C87.9954 7.39518 88.0882 7.60026 88.2119 7.7793C88.3389 7.95833 88.4967 8.09993 88.6855 8.2041C88.8743 8.30501 89.0941 8.35547 89.3447 8.35547C89.5921 8.35547 89.8086 8.30501 89.9941 8.2041C90.1829 8.09993 90.3392 7.95833 90.4629 7.7793C90.5866 7.60026 90.6794 7.39518 90.7412 7.16406C90.8063 6.92969 90.8389 6.68066 90.8389 6.41699V6.30469C90.8389 6.04427 90.8063 5.7985 90.7412 5.56738C90.6794 5.33301 90.585 5.1263 90.458 4.94727C90.3343 4.76497 90.1781 4.62174 89.9893 4.51758C89.8037 4.41341 89.5856 4.36133 89.335 4.36133C89.0876 4.36133 88.8695 4.41341 88.6807 4.51758C88.4951 4.62174 88.3389 4.76497 88.2119 4.94727C88.0882 5.1263 87.9954 5.33301 87.9336 5.56738C87.8717 5.7985 87.8408 6.04427 87.8408 6.30469ZM93.7832 4.54688V9H92.8799V3.7168H93.7588L93.7832 4.54688ZM95.4336 3.6875L95.4287 4.52734C95.3538 4.51107 95.2822 4.5013 95.2139 4.49805C95.1488 4.49154 95.0739 4.48828 94.9893 4.48828C94.7809 4.48828 94.597 4.52083 94.4375 4.58594C94.278 4.65104 94.1429 4.74219 94.0322 4.85938C93.9215 4.97656 93.8337 5.11654 93.7686 5.2793C93.7067 5.4388 93.666 5.61458 93.6465 5.80664L93.3926 5.95312C93.3926 5.63411 93.4235 5.33464 93.4854 5.05469C93.5505 4.77474 93.6497 4.52734 93.7832 4.3125C93.9167 4.0944 94.0859 3.92513 94.291 3.80469C94.4993 3.68099 94.7467 3.61914 95.0332 3.61914C95.0983 3.61914 95.1732 3.62728 95.2578 3.64355C95.3424 3.65658 95.401 3.67122 95.4336 3.6875Z"
  fill="white"
/>
<path
  d="M41.9932 15.981L38.7061 26H36.0581L40.5488 13.9141H42.2339L41.9932 15.981ZM44.7241 26L41.4287 15.981L41.1631 13.9141H42.8647L47.3804 26H44.7241ZM44.5747 21.501V23.4517H38.1914V21.501H44.5747ZM50.4268 18.936V26H48.0361V17.0186H50.2773L50.4268 18.936ZM50.0781 21.1938H49.4307C49.4307 20.5298 49.5164 19.9321 49.688 19.4009C49.8595 18.8641 50.1003 18.4076 50.4102 18.0312C50.7201 17.6494 51.0881 17.3589 51.5142 17.1597C51.9458 16.9549 52.4272 16.8525 52.9585 16.8525C53.3791 16.8525 53.7637 16.9134 54.1123 17.0352C54.4609 17.1569 54.7598 17.3506 55.0088 17.6162C55.2633 17.8818 55.457 18.2332 55.5898 18.6704C55.7282 19.1076 55.7974 19.6416 55.7974 20.2725V26H53.3901V20.2642C53.3901 19.8657 53.3348 19.5558 53.2241 19.3345C53.1134 19.1131 52.9502 18.9582 52.7344 18.8696C52.5241 18.7756 52.264 18.7285 51.9541 18.7285C51.6331 18.7285 51.3537 18.7922 51.1157 18.9194C50.8833 19.0467 50.6896 19.2238 50.5347 19.4507C50.3853 19.672 50.2718 19.9321 50.1943 20.231C50.1169 20.5298 50.0781 20.8507 50.0781 21.1938ZM62.9194 24.041V13.25H65.3267V26H63.1602L62.9194 24.041ZM57.2417 21.6172V21.4429C57.2417 20.7567 57.3192 20.1341 57.4741 19.5752C57.6291 19.0107 57.856 18.5265 58.1548 18.1226C58.4536 17.7186 58.8216 17.4059 59.2588 17.1846C59.696 16.9632 60.194 16.8525 60.7529 16.8525C61.2786 16.8525 61.738 16.9632 62.1309 17.1846C62.5293 17.4059 62.8669 17.7214 63.1436 18.1309C63.4258 18.5348 63.6527 19.0135 63.8242 19.5669C63.9958 20.1147 64.1203 20.7152 64.1978 21.3682V21.75C64.1203 22.3753 63.9958 22.9564 63.8242 23.4932C63.6527 24.0299 63.4258 24.5003 63.1436 24.9043C62.8669 25.3027 62.5293 25.6126 62.1309 25.834C61.7324 26.0553 61.2676 26.166 60.7363 26.166C60.1774 26.166 59.6794 26.0526 59.2422 25.8257C58.8105 25.5988 58.4453 25.2806 58.1465 24.8711C57.8532 24.4616 57.6291 23.9801 57.4741 23.4268C57.3192 22.8734 57.2417 22.2702 57.2417 21.6172ZM59.6323 21.4429V21.6172C59.6323 21.988 59.66 22.3338 59.7153 22.6548C59.7762 22.9757 59.873 23.2607 60.0059 23.5098C60.1442 23.7533 60.3213 23.9442 60.5371 24.0825C60.7585 24.2153 61.0269 24.2817 61.3423 24.2817C61.7518 24.2817 62.0894 24.1904 62.355 24.0078C62.6206 23.8197 62.8226 23.5623 62.9609 23.2358C63.1048 22.9093 63.1878 22.533 63.21 22.1069V21.0195C63.1934 20.6709 63.1436 20.3582 63.0605 20.0815C62.9831 19.7993 62.8669 19.5586 62.7119 19.3594C62.5625 19.1602 62.3743 19.0052 62.1475 18.8945C61.9261 18.7839 61.6632 18.7285 61.3589 18.7285C61.049 18.7285 60.7834 18.8005 60.562 18.9443C60.3407 19.0827 60.1608 19.2736 60.0225 19.5171C59.8896 19.7606 59.79 20.0483 59.7236 20.3804C59.6628 20.7069 59.6323 21.061 59.6323 21.4429ZM69.585 18.9775V26H67.1943V17.0186H69.4438L69.585 18.9775ZM72.291 16.9604L72.2495 19.1768C72.1333 19.1602 71.9922 19.1463 71.8262 19.1353C71.6657 19.1187 71.519 19.1104 71.3862 19.1104C71.0487 19.1104 70.7554 19.1546 70.5063 19.2432C70.2629 19.3262 70.0581 19.4507 69.8921 19.6167C69.7316 19.7827 69.6099 19.9847 69.5269 20.2227C69.4494 20.4606 69.4051 20.7318 69.394 21.0361L68.9126 20.8867C68.9126 20.3057 68.9707 19.7716 69.0869 19.2847C69.2031 18.7922 69.3719 18.3633 69.5933 17.998C69.8201 17.6328 70.0968 17.3506 70.4233 17.1514C70.7498 16.9521 71.1234 16.8525 71.5439 16.8525C71.6768 16.8525 71.8123 16.8636 71.9507 16.8857C72.089 16.9023 72.2025 16.9272 72.291 16.9604ZM72.7891 21.6006V21.4263C72.7891 20.7677 72.8831 20.1618 73.0713 19.6084C73.2594 19.0495 73.5334 18.5653 73.8931 18.1558C74.2528 17.7463 74.6955 17.4281 75.2212 17.2012C75.7469 16.9688 76.3501 16.8525 77.0308 16.8525C77.7114 16.8525 78.3174 16.9688 78.8486 17.2012C79.3799 17.4281 79.8254 17.7463 80.1851 18.1558C80.5503 18.5653 80.827 19.0495 81.0151 19.6084C81.2033 20.1618 81.2974 20.7677 81.2974 21.4263V21.6006C81.2974 22.2536 81.2033 22.8595 81.0151 23.4185C80.827 23.9718 80.5503 24.4561 80.1851 24.8711C79.8254 25.2806 79.3826 25.5988 78.8569 25.8257C78.3312 26.0526 77.728 26.166 77.0474 26.166C76.3667 26.166 75.7607 26.0526 75.2295 25.8257C74.7038 25.5988 74.2583 25.2806 73.8931 24.8711C73.5334 24.4561 73.2594 23.9718 73.0713 23.4185C72.8831 22.8595 72.7891 22.2536 72.7891 21.6006ZM75.1797 21.4263V21.6006C75.1797 21.9769 75.2129 22.3283 75.2793 22.6548C75.3457 22.9813 75.4508 23.269 75.5947 23.5181C75.7441 23.7616 75.9378 23.9525 76.1758 24.0908C76.4137 24.2292 76.7043 24.2983 77.0474 24.2983C77.3794 24.2983 77.6644 24.2292 77.9023 24.0908C78.1403 23.9525 78.3312 23.7616 78.4751 23.5181C78.619 23.269 78.7241 22.9813 78.7905 22.6548C78.8625 22.3283 78.8984 21.9769 78.8984 21.6006V21.4263C78.8984 21.061 78.8625 20.7179 78.7905 20.397C78.7241 20.0705 78.6162 19.7827 78.4668 19.5337C78.3229 19.2791 78.132 19.0799 77.894 18.936C77.6561 18.7922 77.3683 18.7202 77.0308 18.7202C76.6932 18.7202 76.4054 18.7922 76.1675 18.936C75.9351 19.0799 75.7441 19.2791 75.5947 19.5337C75.4508 19.7827 75.3457 20.0705 75.2793 20.397C75.2129 20.7179 75.1797 21.061 75.1797 21.4263ZM85.29 17.0186V26H82.8911V17.0186H85.29ZM82.7417 14.6777C82.7417 14.3291 82.8634 14.0413 83.1069 13.8145C83.3504 13.5876 83.6769 13.4741 84.0864 13.4741C84.4904 13.4741 84.8141 13.5876 85.0576 13.8145C85.3066 14.0413 85.4312 14.3291 85.4312 14.6777C85.4312 15.0264 85.3066 15.3141 85.0576 15.541C84.8141 15.7679 84.4904 15.8813 84.0864 15.8813C83.6769 15.8813 83.3504 15.7679 83.1069 15.541C82.8634 15.3141 82.7417 15.0264 82.7417 14.6777ZM92.5698 24.041V13.25H94.9771V26H92.8105L92.5698 24.041ZM86.8921 21.6172V21.4429C86.8921 20.7567 86.9696 20.1341 87.1245 19.5752C87.2795 19.0107 87.5063 18.5265 87.8052 18.1226C88.104 17.7186 88.472 17.4059 88.9092 17.1846C89.3464 16.9632 89.8444 16.8525 90.4033 16.8525C90.929 16.8525 91.3883 16.9632 91.7812 17.1846C92.1797 17.4059 92.5173 17.7214 92.7939 18.1309C93.0762 18.5348 93.3031 19.0135 93.4746 19.5669C93.6462 20.1147 93.7707 20.7152 93.8481 21.3682V21.75C93.7707 22.3753 93.6462 22.9564 93.4746 23.4932C93.3031 24.0299 93.0762 24.5003 92.7939 24.9043C92.5173 25.3027 92.1797 25.6126 91.7812 25.834C91.3828 26.0553 90.918 26.166 90.3867 26.166C89.8278 26.166 89.3298 26.0526 88.8926 25.8257C88.4609 25.5988 88.0957 25.2806 87.7969 24.8711C87.5036 24.4616 87.2795 23.9801 87.1245 23.4268C86.9696 22.8734 86.8921 22.2702 86.8921 21.6172ZM89.2827 21.4429V21.6172C89.2827 21.988 89.3104 22.3338 89.3657 22.6548C89.4266 22.9757 89.5234 23.2607 89.6562 23.5098C89.7946 23.7533 89.9717 23.9442 90.1875 24.0825C90.4089 24.2153 90.6772 24.2817 90.9927 24.2817C91.4022 24.2817 91.7397 24.1904 92.0054 24.0078C92.271 23.8197 92.473 23.5623 92.6113 23.2358C92.7552 22.9093 92.8382 22.533 92.8604 22.1069V21.0195C92.8438 20.6709 92.7939 20.3582 92.7109 20.0815C92.6335 19.7993 92.5173 19.5586 92.3623 19.3594C92.2129 19.1602 92.0247 19.0052 91.7979 18.8945C91.5765 18.7839 91.3136 18.7285 91.0093 18.7285C90.6994 18.7285 90.4338 18.8005 90.2124 18.9443C89.991 19.0827 89.8112 19.2736 89.6729 19.5171C89.54 19.7606 89.4404 20.0483 89.374 20.3804C89.3132 20.7069 89.2827 21.061 89.2827 21.4429Z"
  fill="white"
/>
<path
  d="M7.91357 21.7295C7.91357 22.4151 8.47315 22.9746 9.16162 22.9746H10.5884V26.502C10.5884 27.3955 11.3062 28.125 12.188 28.125C13.0728 28.125 13.7876 27.3985 13.7876 26.502V22.9717H16.2778V26.4991C16.2778 27.3926 16.9956 28.1221 17.8774 28.1221C18.7622 28.1221 19.4771 27.3955 19.4771 26.4991V22.9717H20.9038C21.5923 22.9717 22.1519 22.4121 22.1519 21.7266V10.1485H7.91357V21.7295V21.7295ZM18.3755 4.14848L19.6909 2.24418C19.7671 2.13285 19.7495 1.98344 19.647 1.9102C19.5444 1.83988 19.398 1.87504 19.3218 1.98637L17.9565 3.96684C17.0571 3.61234 16.0552 3.41605 15.0034 3.41605C13.9517 3.41605 12.9497 3.61234 12.0503 3.96684L10.6851 1.9893C10.6089 1.87797 10.4624 1.83988 10.3599 1.91313C10.2573 1.98344 10.2397 2.12992 10.3159 2.24711L11.6313 4.15141C9.53955 5.12406 8.07471 6.96683 7.88721 9.12015H22.1255C21.9321 6.96391 20.4644 5.12113 18.3755 4.14848V4.14848ZM11.9976 7.15141C11.8417 7.15141 11.6893 7.10518 11.5597 7.01859C11.4301 6.93199 11.3291 6.80891 11.2695 6.66491C11.2098 6.5209 11.1942 6.36245 11.2246 6.20957C11.255 6.0567 11.3301 5.91627 11.4403 5.80606C11.5505 5.69584 11.6909 5.62079 11.8438 5.59038C11.9967 5.55997 12.1551 5.57557 12.2991 5.63522C12.4432 5.69487 12.5662 5.79588 12.6528 5.92548C12.7394 6.05508 12.7856 6.20745 12.7856 6.36332C12.7851 6.57217 12.7019 6.7723 12.5542 6.91998C12.4065 7.06766 12.2064 7.15086 11.9976 7.15141V7.15141ZM18.103 7.15141C17.9472 7.15141 17.7948 7.10518 17.6652 7.01859C17.5356 6.93199 17.4346 6.80891 17.3749 6.66491C17.3153 6.5209 17.2997 6.36245 17.3301 6.20957C17.3605 6.0567 17.4356 5.91627 17.5458 5.80606C17.656 5.69584 17.7964 5.62079 17.9493 5.59038C18.1022 5.55997 18.2606 5.57557 18.4046 5.63522C18.5486 5.69487 18.6717 5.79588 18.7583 5.92548C18.8449 6.05508 18.8911 6.20745 18.8911 6.36332C18.8906 6.57217 18.8074 6.7723 18.6597 6.91998C18.512 7.06766 18.3119 7.15086 18.103 7.15141ZM24.648 10.1016C23.7632 10.1016 23.0483 10.8282 23.0483 11.7246V18.0645C23.0483 18.958 23.7661 19.6875 24.648 19.6875C25.5327 19.6875 26.2476 18.961 26.2476 18.0645V11.7217C26.2505 10.8252 25.5356 10.1016 24.648 10.1016ZM5.35303 10.1016C4.46826 10.1016 3.75342 10.8282 3.75342 11.7246V18.0645C3.75342 18.958 4.47119 19.6875 5.35303 19.6875C6.23779 19.6875 6.95264 18.961 6.95264 18.0645V11.7217C6.95264 10.8252 6.23486 10.1016 5.35303 10.1016Z"
  fill="white"
/>
</svg>