<svg
                width="95"
                height="30"
                viewBox="0 0 95 30"
                fill="none"
                xmlns="http://www.w3.org/2000/svg"
              >
                <path
                  d="M37.749 11H36.2646L36.2744 10.2334H37.749C38.2568 10.2334 38.68 10.1276 39.0186 9.91602C39.3571 9.70117 39.611 9.40169 39.7803 9.01758C39.9528 8.63021 40.0391 8.17773 40.0391 7.66016V7.22559C40.0391 6.81868 39.9902 6.45736 39.8926 6.1416C39.7949 5.82259 39.6517 5.55404 39.4629 5.33594C39.2741 5.11458 39.043 4.94694 38.7695 4.83301C38.4993 4.71908 38.1885 4.66211 37.8369 4.66211H36.2354V3.89062H37.8369C38.3024 3.89062 38.7272 3.96875 39.1113 4.125C39.4954 4.27799 39.8258 4.50098 40.1025 4.79395C40.3825 5.08366 40.5973 5.43522 40.7471 5.84863C40.8968 6.25879 40.9717 6.72103 40.9717 7.23535V7.66016C40.9717 8.17448 40.8968 8.63835 40.7471 9.05176C40.5973 9.46191 40.3809 9.81185 40.0977 10.1016C39.8177 10.3913 39.4792 10.6143 39.082 10.7705C38.6882 10.9235 38.2438 11 37.749 11ZM36.7676 3.89062V11H35.8252V3.89062H36.7676ZM42.0117 8.41699V8.30469C42.0117 7.92383 42.0671 7.57064 42.1777 7.24512C42.2884 6.91634 42.4479 6.63151 42.6562 6.39062C42.8646 6.14648 43.1169 5.95768 43.4131 5.82422C43.7093 5.6875 44.0413 5.61914 44.4092 5.61914C44.7803 5.61914 45.1139 5.6875 45.4102 5.82422C45.7096 5.95768 45.9635 6.14648 46.1719 6.39062C46.3835 6.63151 46.5446 6.91634 46.6553 7.24512C46.766 7.57064 46.8213 7.92383 46.8213 8.30469V8.41699C46.8213 8.79785 46.766 9.15104 46.6553 9.47656C46.5446 9.80208 46.3835 10.0869 46.1719 10.3311C45.9635 10.5719 45.7113 10.7607 45.415 10.8975C45.1221 11.0309 44.79 11.0977 44.4189 11.0977C44.0479 11.0977 43.7142 11.0309 43.418 10.8975C43.1217 10.7607 42.8678 10.5719 42.6562 10.3311C42.4479 10.0869 42.2884 9.80208 42.1777 9.47656C42.0671 9.15104 42.0117 8.79785 42.0117 8.41699ZM42.915 8.30469V8.41699C42.915 8.68066 42.946 8.92969 43.0078 9.16406C43.0697 9.39518 43.1624 9.60026 43.2861 9.7793C43.4131 9.95833 43.571 10.0999 43.7598 10.2041C43.9486 10.305 44.1683 10.3555 44.4189 10.3555C44.6663 10.3555 44.8828 10.305 45.0684 10.2041C45.2572 10.0999 45.4134 9.95833 45.5371 9.7793C45.6608 9.60026 45.7536 9.39518 45.8154 9.16406C45.8805 8.92969 45.9131 8.68066 45.9131 8.41699V8.30469C45.9131 8.04427 45.8805 7.7985 45.8154 7.56738C45.7536 7.33301 45.6592 7.1263 45.5322 6.94727C45.4085 6.76497 45.2523 6.62174 45.0635 6.51758C44.8779 6.41341 44.6598 6.36133 44.4092 6.36133C44.1618 6.36133 43.9437 6.41341 43.7549 6.51758C43.5693 6.62174 43.4131 6.76497 43.2861 6.94727C43.1624 7.1263 43.0697 7.33301 43.0078 7.56738C42.946 7.7985 42.915 8.04427 42.915 8.30469ZM49.292 10.0625L50.6494 5.7168H51.2451L51.1279 6.58105L49.7461 11H49.165L49.292 10.0625ZM48.3789 5.7168L49.5361 10.1113L49.6191 11H49.0088L47.4756 5.7168H48.3789ZM52.5439 10.0771L53.6475 5.7168H54.5459L53.0127 11H52.4072L52.5439 10.0771ZM51.377 5.7168L52.7051 9.98926L52.8564 11H52.2803L50.8594 6.57129L50.7422 5.7168H51.377ZM56.377 6.84473V11H55.4736V5.7168H56.3281L56.377 6.84473ZM56.1621 8.1582L55.7861 8.14355C55.7894 7.78223 55.8431 7.44857 55.9473 7.14258C56.0514 6.83333 56.1979 6.56478 56.3867 6.33691C56.5755 6.10905 56.8001 5.93327 57.0605 5.80957C57.3242 5.68262 57.6156 5.61914 57.9346 5.61914C58.195 5.61914 58.4294 5.65495 58.6377 5.72656C58.846 5.79492 59.0234 5.9056 59.1699 6.05859C59.3197 6.21159 59.4336 6.41016 59.5117 6.6543C59.5898 6.89518 59.6289 7.18978 59.6289 7.53809V11H58.7207V7.52832C58.7207 7.25163 58.68 7.03027 58.5986 6.86426C58.5173 6.69499 58.3984 6.57292 58.2422 6.49805C58.0859 6.41992 57.8939 6.38086 57.666 6.38086C57.4414 6.38086 57.2363 6.42806 57.0508 6.52246C56.8685 6.61686 56.7106 6.74707 56.5771 6.91309C56.4469 7.0791 56.3444 7.26953 56.2695 7.48438C56.1979 7.69596 56.1621 7.92057 56.1621 8.1582ZM61.9824 3.5V11H61.0742V3.5H61.9824ZM63.1934 8.41699V8.30469C63.1934 7.92383 63.2487 7.57064 63.3594 7.24512C63.4701 6.91634 63.6296 6.63151 63.8379 6.39062C64.0462 6.14648 64.2985 5.95768 64.5947 5.82422C64.891 5.6875 65.223 5.61914 65.5908 5.61914C65.9619 5.61914 66.2956 5.6875 66.5918 5.82422C66.8913 5.95768 67.1452 6.14648 67.3535 6.39062C67.5651 6.63151 67.7262 6.91634 67.8369 7.24512C67.9476 7.57064 68.0029 7.92383 68.0029 8.30469V8.41699C68.0029 8.79785 67.9476 9.15104 67.8369 9.47656C67.7262 9.80208 67.5651 10.0869 67.3535 10.3311C67.1452 10.5719 66.8929 10.7607 66.5967 10.8975C66.3037 11.0309 65.9717 11.0977 65.6006 11.0977C65.2295 11.0977 64.8958 11.0309 64.5996 10.8975C64.3034 10.7607 64.0495 10.5719 63.8379 10.3311C63.6296 10.0869 63.4701 9.80208 63.3594 9.47656C63.2487 9.15104 63.1934 8.79785 63.1934 8.41699ZM64.0967 8.30469V8.41699C64.0967 8.68066 64.1276 8.92969 64.1895 9.16406C64.2513 9.39518 64.3441 9.60026 64.4678 9.7793C64.5947 9.95833 64.7526 10.0999 64.9414 10.2041C65.1302 10.305 65.3499 10.3555 65.6006 10.3555C65.848 10.3555 66.0645 10.305 66.25 10.2041C66.4388 10.0999 66.5951 9.95833 66.7188 9.7793C66.8424 9.60026 66.9352 9.39518 66.9971 9.16406C67.0622 8.92969 67.0947 8.68066 67.0947 8.41699V8.30469C67.0947 8.04427 67.0622 7.7985 66.9971 7.56738C66.9352 7.33301 66.8408 7.1263 66.7139 6.94727C66.5902 6.76497 66.4339 6.62174 66.2451 6.51758C66.0596 6.41341 65.8415 6.36133 65.5908 6.36133C65.3434 6.36133 65.1253 6.41341 64.9365 6.51758C64.751 6.62174 64.5947 6.76497 64.4678 6.94727C64.3441 7.1263 64.2513 7.33301 64.1895 7.56738C64.1276 7.7985 64.0967 8.04427 64.0967 8.30469ZM72.251 10.0967V7.37695C72.251 7.16862 72.2087 6.98796 72.124 6.83496C72.0426 6.67871 71.9189 6.55827 71.7529 6.47363C71.5869 6.389 71.3818 6.34668 71.1377 6.34668C70.9098 6.34668 70.7096 6.38574 70.5371 6.46387C70.3678 6.54199 70.2344 6.64453 70.1367 6.77148C70.0423 6.89844 69.9951 7.03516 69.9951 7.18164H69.0918C69.0918 6.99284 69.1406 6.80566 69.2383 6.62012C69.3359 6.43457 69.4759 6.26693 69.6582 6.11719C69.8438 5.96419 70.0651 5.84375 70.3223 5.75586C70.5827 5.66471 70.8724 5.61914 71.1914 5.61914C71.5755 5.61914 71.9141 5.68424 72.207 5.81445C72.5033 5.94466 72.7344 6.1416 72.9004 6.40527C73.0697 6.66569 73.1543 6.99284 73.1543 7.38672V9.84766C73.1543 10.0234 73.1689 10.2106 73.1982 10.4092C73.2308 10.6077 73.278 10.7786 73.3398 10.9219V11H72.3975C72.3519 10.8958 72.3161 10.7575 72.29 10.585C72.264 10.4092 72.251 10.2464 72.251 10.0967ZM72.4072 7.79688L72.417 8.43164H71.5039C71.2467 8.43164 71.0173 8.4528 70.8154 8.49512C70.6136 8.53418 70.4443 8.5944 70.3076 8.67578C70.1709 8.75716 70.0667 8.8597 69.9951 8.9834C69.9235 9.10384 69.8877 9.24544 69.8877 9.4082C69.8877 9.57422 69.9251 9.72559 70 9.8623C70.0749 9.99902 70.1872 10.1081 70.3369 10.1895C70.4899 10.2676 70.6771 10.3066 70.8984 10.3066C71.1751 10.3066 71.4193 10.248 71.6309 10.1309C71.8424 10.0137 72.0101 9.87044 72.1338 9.70117C72.2607 9.5319 72.3291 9.36751 72.3389 9.20801L72.7246 9.64258C72.7018 9.7793 72.64 9.93066 72.5391 10.0967C72.4382 10.2627 72.3031 10.4222 72.1338 10.5752C71.9678 10.7249 71.7692 10.8503 71.5381 10.9512C71.3102 11.0488 71.0531 11.0977 70.7666 11.0977C70.4085 11.0977 70.0944 11.0277 69.8242 10.8877C69.5573 10.7477 69.349 10.5605 69.1992 10.3262C69.0527 10.0885 68.9795 9.82324 68.9795 9.53027C68.9795 9.24707 69.0348 8.99805 69.1455 8.7832C69.2562 8.5651 69.4157 8.38444 69.624 8.24121C69.8324 8.09473 70.083 7.98405 70.376 7.90918C70.6689 7.83431 70.9961 7.79688 71.3574 7.79688H72.4072ZM77.9053 9.97461V3.5H78.8135V11H77.9834L77.9053 9.97461ZM74.3506 8.41699V8.31445C74.3506 7.91081 74.3994 7.5446 74.4971 7.21582C74.598 6.88379 74.7396 6.59896 74.9219 6.36133C75.1074 6.1237 75.3271 5.94141 75.5811 5.81445C75.8382 5.68424 76.1247 5.61914 76.4404 5.61914C76.7725 5.61914 77.0622 5.67773 77.3096 5.79492C77.5602 5.90885 77.7718 6.0765 77.9443 6.29785C78.1201 6.51595 78.2585 6.77962 78.3594 7.08887C78.4603 7.39811 78.5303 7.74805 78.5693 8.13867V8.58789C78.5335 8.97526 78.4635 9.32357 78.3594 9.63281C78.2585 9.94206 78.1201 10.2057 77.9443 10.4238C77.7718 10.6419 77.5602 10.8096 77.3096 10.9268C77.0589 11.0407 76.766 11.0977 76.4307 11.0977C76.1214 11.0977 75.8382 11.0309 75.5811 10.8975C75.3271 10.764 75.1074 10.5768 74.9219 10.3359C74.7396 10.0951 74.598 9.81185 74.4971 9.48633C74.3994 9.15755 74.3506 8.80111 74.3506 8.41699ZM75.2588 8.31445V8.41699C75.2588 8.68066 75.2848 8.92806 75.3369 9.15918C75.3923 9.3903 75.4769 9.59375 75.5908 9.76953C75.7048 9.94531 75.8496 10.0837 76.0254 10.1846C76.2012 10.2822 76.4111 10.3311 76.6553 10.3311C76.9548 10.3311 77.2005 10.2676 77.3926 10.1406C77.5879 10.0137 77.7441 9.84603 77.8613 9.6377C77.9785 9.42936 78.0697 9.20312 78.1348 8.95898V7.78223C78.0957 7.60319 78.0387 7.43066 77.9639 7.26465C77.8923 7.09538 77.7979 6.94564 77.6807 6.81543C77.5667 6.68197 77.4251 6.57617 77.2559 6.49805C77.0898 6.41992 76.8929 6.38086 76.665 6.38086C76.4176 6.38086 76.2044 6.43294 76.0254 6.53711C75.8496 6.63802 75.7048 6.77799 75.5908 6.95703C75.4769 7.13281 75.3923 7.33789 75.3369 7.57227C75.2848 7.80339 75.2588 8.05078 75.2588 8.31445ZM84.0479 11H83.1445V5.16016C83.1445 4.7793 83.2129 4.45866 83.3496 4.19824C83.4896 3.93457 83.6898 3.736 83.9502 3.60254C84.2106 3.46582 84.5199 3.39746 84.8779 3.39746C84.9821 3.39746 85.0863 3.40397 85.1904 3.41699C85.2979 3.43001 85.402 3.44954 85.5029 3.47559L85.4541 4.21289C85.3857 4.19661 85.3076 4.18522 85.2197 4.17871C85.1351 4.1722 85.0505 4.16895 84.9658 4.16895C84.7738 4.16895 84.6077 4.20801 84.4678 4.28613C84.3311 4.361 84.2269 4.47168 84.1553 4.61816C84.0837 4.76465 84.0479 4.94531 84.0479 5.16016V11ZM85.1709 5.7168V6.41016H82.3096V5.7168H85.1709ZM85.9375 8.41699V8.30469C85.9375 7.92383 85.9928 7.57064 86.1035 7.24512C86.2142 6.91634 86.3737 6.63151 86.582 6.39062C86.7904 6.14648 87.0426 5.95768 87.3389 5.82422C87.6351 5.6875 87.9671 5.61914 88.335 5.61914C88.7061 5.61914 89.0397 5.6875 89.3359 5.82422C89.6354 5.95768 89.8893 6.14648 90.0977 6.39062C90.3092 6.63151 90.4704 6.91634 90.5811 7.24512C90.6917 7.57064 90.7471 7.92383 90.7471 8.30469V8.41699C90.7471 8.79785 90.6917 9.15104 90.5811 9.47656C90.4704 9.80208 90.3092 10.0869 90.0977 10.3311C89.8893 10.5719 89.637 10.7607 89.3408 10.8975C89.0479 11.0309 88.7158 11.0977 88.3447 11.0977C87.9736 11.0977 87.64 11.0309 87.3438 10.8975C87.0475 10.7607 86.7936 10.5719 86.582 10.3311C86.3737 10.0869 86.2142 9.80208 86.1035 9.47656C85.9928 9.15104 85.9375 8.79785 85.9375 8.41699ZM86.8408 8.30469V8.41699C86.8408 8.68066 86.8717 8.92969 86.9336 9.16406C86.9954 9.39518 87.0882 9.60026 87.2119 9.7793C87.3389 9.95833 87.4967 10.0999 87.6855 10.2041C87.8743 10.305 88.0941 10.3555 88.3447 10.3555C88.5921 10.3555 88.8086 10.305 88.9941 10.2041C89.1829 10.0999 89.3392 9.95833 89.4629 9.7793C89.5866 9.60026 89.6794 9.39518 89.7412 9.16406C89.8063 8.92969 89.8389 8.68066 89.8389 8.41699V8.30469C89.8389 8.04427 89.8063 7.7985 89.7412 7.56738C89.6794 7.33301 89.585 7.1263 89.458 6.94727C89.3343 6.76497 89.1781 6.62174 88.9893 6.51758C88.8037 6.41341 88.5856 6.36133 88.335 6.36133C88.0876 6.36133 87.8695 6.41341 87.6807 6.51758C87.4951 6.62174 87.3389 6.76497 87.2119 6.94727C87.0882 7.1263 86.9954 7.33301 86.9336 7.56738C86.8717 7.7985 86.8408 8.04427 86.8408 8.30469ZM92.7832 6.54688V11H91.8799V5.7168H92.7588L92.7832 6.54688ZM94.4336 5.6875L94.4287 6.52734C94.3538 6.51107 94.2822 6.5013 94.2139 6.49805C94.1488 6.49154 94.0739 6.48828 93.9893 6.48828C93.7809 6.48828 93.597 6.52083 93.4375 6.58594C93.278 6.65104 93.1429 6.74219 93.0322 6.85938C92.9215 6.97656 92.8337 7.11654 92.7686 7.2793C92.7067 7.4388 92.666 7.61458 92.6465 7.80664L92.3926 7.95312C92.3926 7.63411 92.4235 7.33464 92.4854 7.05469C92.5505 6.77474 92.6497 6.52734 92.7832 6.3125C92.9167 6.0944 93.0859 5.92513 93.291 5.80469C93.4993 5.68099 93.7467 5.61914 94.0332 5.61914C94.0983 5.61914 94.1732 5.62728 94.2578 5.64355C94.3424 5.65658 94.401 5.67122 94.4336 5.6875Z"
                  fill="white"
                />
                <path
                  d="M38.4531 19.0186V28H36.0542V19.0186H38.4531ZM35.9048 16.6777C35.9048 16.3291 36.0265 16.0413 36.27 15.8145C36.5135 15.5876 36.84 15.4741 37.2495 15.4741C37.6535 15.4741 37.9772 15.5876 38.2207 15.8145C38.4697 16.0413 38.5942 16.3291 38.5942 16.6777C38.5942 17.0264 38.4697 17.3141 38.2207 17.541C37.9772 17.7679 37.6535 17.8813 37.2495 17.8813C36.84 17.8813 36.5135 17.7679 36.27 17.541C36.0265 17.3141 35.9048 17.0264 35.9048 16.6777ZM50.5059 21.6748V22.2476C50.5059 23.1662 50.3813 23.9907 50.1323 24.7212C49.8833 25.4517 49.5319 26.0742 49.0781 26.5889C48.6243 27.098 48.082 27.4881 47.4512 27.7593C46.8258 28.0304 46.1313 28.166 45.3677 28.166C44.6095 28.166 43.915 28.0304 43.2842 27.7593C42.6589 27.4881 42.1165 27.098 41.6572 26.5889C41.1979 26.0742 40.841 25.4517 40.5864 24.7212C40.3374 23.9907 40.2129 23.1662 40.2129 22.2476V21.6748C40.2129 20.7507 40.3374 19.9261 40.5864 19.2012C40.8354 18.4707 41.1868 17.8481 41.6406 17.3335C42.0999 16.8188 42.6423 16.4259 43.2676 16.1548C43.8984 15.8836 44.5929 15.748 45.3511 15.748C46.1147 15.748 46.8092 15.8836 47.4346 16.1548C48.0654 16.4259 48.6077 16.8188 49.0615 17.3335C49.5208 17.8481 49.875 18.4707 50.124 19.2012C50.3786 19.9261 50.5059 20.7507 50.5059 21.6748ZM47.9907 22.2476V21.6582C47.9907 21.0163 47.9326 20.4518 47.8164 19.9648C47.7002 19.4779 47.5286 19.0684 47.3018 18.7363C47.0749 18.4043 46.7982 18.1553 46.4717 17.9893C46.1452 17.8177 45.7716 17.7319 45.3511 17.7319C44.9305 17.7319 44.557 17.8177 44.2305 17.9893C43.9095 18.1553 43.6356 18.4043 43.4087 18.7363C43.1873 19.0684 43.0186 19.4779 42.9023 19.9648C42.7861 20.4518 42.728 21.0163 42.728 21.6582V22.2476C42.728 22.884 42.7861 23.4484 42.9023 23.9409C43.0186 24.4279 43.1901 24.8402 43.417 25.1777C43.6439 25.5098 43.9206 25.7616 44.2471 25.9331C44.5736 26.1047 44.9471 26.1904 45.3677 26.1904C45.7882 26.1904 46.1618 26.1047 46.4883 25.9331C46.8148 25.7616 47.0887 25.5098 47.3101 25.1777C47.5314 24.8402 47.7002 24.4279 47.8164 23.9409C47.9326 23.4484 47.9907 22.884 47.9907 22.2476ZM58.5908 24.8374C58.5908 24.6216 58.5576 24.4279 58.4912 24.2563C58.4303 24.0793 58.3141 23.9188 58.1426 23.7749C57.971 23.6255 57.7303 23.4788 57.4204 23.335C57.1105 23.1911 56.7093 23.0417 56.2168 22.8867C55.6689 22.7096 55.1488 22.5104 54.6562 22.2891C54.1693 22.0677 53.7376 21.8104 53.3613 21.5171C52.9906 21.2183 52.6973 20.8724 52.4814 20.4795C52.2712 20.0866 52.166 19.63 52.166 19.1099C52.166 18.6063 52.2767 18.1497 52.498 17.7402C52.7194 17.3252 53.0293 16.971 53.4277 16.6777C53.8262 16.3789 54.2965 16.1493 54.8389 15.9888C55.3867 15.8283 55.9871 15.748 56.6401 15.748C57.5311 15.748 58.3086 15.9085 58.9727 16.2295C59.6367 16.5505 60.1514 16.9904 60.5166 17.5493C60.8874 18.1082 61.0728 18.7474 61.0728 19.4668H58.5991C58.5991 19.1126 58.5244 18.8027 58.375 18.5371C58.2311 18.266 58.0098 18.0529 57.7109 17.8979C57.4176 17.743 57.0469 17.6655 56.5986 17.6655C56.167 17.6655 55.8073 17.7319 55.5195 17.8647C55.2318 17.992 55.016 18.1663 54.8721 18.3877C54.7282 18.6035 54.6562 18.847 54.6562 19.1182C54.6562 19.3229 54.7061 19.5083 54.8057 19.6743C54.9108 19.8403 55.0658 19.9953 55.2705 20.1392C55.4753 20.283 55.7271 20.4186 56.0259 20.5459C56.3247 20.6732 56.6706 20.7977 57.0635 20.9194C57.722 21.1187 58.3003 21.3428 58.7983 21.5918C59.3019 21.8408 59.7225 22.1203 60.0601 22.4302C60.3976 22.7401 60.6522 23.0915 60.8237 23.4844C60.9953 23.8773 61.0811 24.3228 61.0811 24.8208C61.0811 25.3465 60.9787 25.8169 60.7739 26.2319C60.5692 26.647 60.2731 26.9984 59.8857 27.2861C59.4984 27.5739 59.0363 27.7925 58.4995 27.9419C57.9627 28.0913 57.3623 28.166 56.6982 28.166C56.1006 28.166 55.5112 28.0885 54.9302 27.9336C54.3491 27.7731 53.8206 27.5324 53.3447 27.2114C52.8743 26.8905 52.498 26.481 52.2158 25.9829C51.9336 25.4849 51.7925 24.8955 51.7925 24.2148H54.291C54.291 24.5911 54.3491 24.9093 54.4653 25.1694C54.5815 25.4295 54.7448 25.6398 54.9551 25.8003C55.1709 25.9608 55.4255 26.077 55.7188 26.1489C56.0176 26.2209 56.3441 26.2568 56.6982 26.2568C57.1299 26.2568 57.484 26.196 57.7607 26.0742C58.043 25.9525 58.2505 25.7837 58.3833 25.5679C58.5216 25.3521 58.5908 25.1086 58.5908 24.8374Z"
                  fill="white"
                />
                <path
                  d="M21.8965 15.6943C21.8848 13.6963 22.79 12.1904 24.6182 11.0801C23.5957 9.61524 22.0488 8.80957 20.0098 8.6543C18.0791 8.50195 15.9668 9.7793 15.1934 9.7793C14.376 9.7793 12.5068 8.70703 11.0361 8.70703C8.00098 8.75391 4.77539 11.127 4.77539 15.9551C4.77539 17.3818 5.03613 18.8555 5.55762 20.373C6.25488 22.3711 8.76855 27.2666 11.3906 27.1875C12.7617 27.1553 13.7314 26.2148 15.5156 26.2148C17.2471 26.2148 18.1436 27.1875 19.6729 27.1875C22.3184 27.1494 24.5918 22.6992 25.2539 20.6953C21.7061 19.0225 21.8965 15.7969 21.8965 15.6943V15.6943ZM18.8174 6.75879C20.3027 4.99512 20.168 3.38965 20.124 2.8125C18.8115 2.88867 17.2939 3.70605 16.4297 4.71094C15.4775 5.78906 14.918 7.12207 15.0381 8.625C16.4561 8.7334 17.751 8.00391 18.8174 6.75879V6.75879Z"
                  fill="white"
                />
              </svg>