<svg width="45" height="45" viewBox="0 0 512 512" fill="none" xmlns="http://www.w3.org/2000/svg">
<path d="M109.691 80.7694L109.691 80.7693C130.227 63.492 154.773 55.4855 182.758 51.8094L181 38.4243L182.758 51.8094C220.311 46.8763 255.019 62.8825 280.142 90.1069C305.372 117.447 319.909 155.088 317.442 191.077L317.442 191.077C313.461 249.156 263.004 299.142 205.333 306.317C189.885 308.239 174.657 307.104 159.26 303.272C144.399 299.574 130.321 293.077 117.854 284.16L117.854 284.16C48.8397 234.796 44.7395 135.414 109.691 80.7694Z" stroke="#EFBB09" stroke-width="27"/>
<path d="M160 41L161 42L160 41Z" fill="#F3CB01"/>
<path d="M152 43L153 44L152 43Z" fill="#FFFF01"/>
<path d="M143 46L144 47L143 46Z" fill="#F3CB01"/>
<path d="M140 47L141 48L140 47Z" fill="#FFFF01"/>
<path d="M133 50L134 51L133 50Z" fill="#FF8101"/>
<path d="M127 53L128 54L127 53Z" fill="#F3CB01"/>
<path d="M258 56L259 57L258 56ZM263 59L264 60L263 59Z" fill="#FF8101"/>
<path d="M113 61L114 62L113 61Z" fill="#FFFF01"/>
<path d="M266 61L267 62L266 61ZM176 65L177 66L176 65Z" fill="#F3CB01"/>
<path d="M203 65L204 66L203 65Z" fill="#F3CB01"/>
<path d="M215 67L216 68L215 67ZM223 69L224 70L223 69ZM153 70L154 71L153 70ZM232 72L233 73L232 72ZM283 74L284 75L283 74ZM95 75L96 76L95 75Z" fill="#FFFF01"/>
<path d="M140 75L141 76L140 75Z" fill="#FF8101"/>
<path d="M94 76L95 77L94 76ZM138 76L139 77L138 76Z" fill="#FFFF01"/>
<path d="M285 76L286 77L285 76Z" fill="#F3CB01"/>
<path d="M93 77L94 78L93 77Z" fill="#FF8101"/>
<path d="M136 77L137 78L136 77ZM134 78L135 79L134 78Z" fill="#FFFF01"/>
<path d="M91 79L92 80L91 79Z" fill="#F3CB01"/>
<path d="M247 79L248 80L247 79Z" fill="#FFFF01"/>
<path d="M185 80.5324C176.704 82.5056 170.748 90.2523 165 96C151.429 109.571 130.578 124.307 121.09 141C115.693 150.494 126.171 164.114 136 165.768C142.53 166.867 146.778 162.199 151 157.999L176 133C178.968 130.032 185.15 121.137 190 122.346C194.157 123.382 198.096 129.096 201 132L225 156C230.275 161.273 235.668 167.831 244 165.566C252.623 163.222 262.329 151.018 257.821 142C254.568 135.493 247.086 130.086 242 125C230.334 113.334 218.695 101.639 207 90.0008C200.755 83.7861 194.398 78.2971 185 80.5324Z" fill="#EFBB09"/>
<path d="M88 82L89 83L88 82Z" fill="#FF8101"/>
<path d="M198 82L199 83L198 82ZM252 82L253 83L252 82ZM87 83L88 84L87 83ZM178 83L179 84L178 83ZM86 84L87 85L86 84Z" fill="#FFFF01"/>
<path d="M258 86L259 87L258 86Z" fill="#FF8101"/>
<path d="M295 86L296 87L295 86ZM116 90L117 91L116 90ZM80 91L81 92L80 91ZM300 92L301 93L300 92Z" fill="#FFFF01"/>
<path d="M270 96L271 97L270 96Z" fill="#F3CB01"/>
<path d="M271 97L272 98L271 97ZM74 99L75 100L74 99Z" fill="#FF8101"/>
<path d="M274 100L275 101L274 100Z" fill="#F3CB01"/>
<path d="M306 100L307 101L306 100Z" fill="#FFFF01"/>
<path d="M70 105L71 106L70 105Z" fill="#FF8101"/>
<path d="M101 105L102 106L101 105Z" fill="#FFFF01"/>
<path d="M280 107L281 108L280 107Z" fill="#F3CB01"/>
<path d="M67 110L68 111L67 110Z" fill="#FF8101"/>
<path d="M283 111L284 112L283 111Z" fill="#F3CB01"/>
<path d="M95 113L96 114L95 113ZM314 113L315 114L314 113ZM315 115L316 116L315 115ZM93 116L94 117L93 116Z" fill="#FFFF01"/>
<path d="M91 119L92 120L91 119Z" fill="#F3CB01"/>
<path d="M90 121L91 122L90 121Z" fill="#FFFF01"/>
<path d="M187 121L188 122L187 121Z" fill="#FF8101"/>
<path d="M318 121L319 122L318 121Z" fill="#FFFF01"/>
<path d="M186 122L187 123L186 122ZM185 123L186 124L185 123ZM184 124L185 125L184 124ZM183 125L184 126L183 125Z" fill="#FF8101"/>
<path d="M59 126L60 127L59 126Z" fill="#FFFF01"/>
<path d="M182 126L183 127L182 126ZM181 127L182 128L181 127ZM180 128L181 129L180 128Z" fill="#FF8101"/>
<path d="M321 128L322 129L321 128Z" fill="#FFFF01"/>
<path d="M179 129L180 130L179 129ZM178 130L179 131L178 130Z" fill="#FF8101"/>
<path d="M57 131L58 132L57 131Z" fill="#FFFF01"/>
<path d="M177 131L178 132L177 131ZM176 132L177 133L176 132ZM175 133L176 134L175 133ZM174 134L175 135L174 134ZM173 135L174 136L173 135ZM172 136L173 137L172 136ZM171 137L172 138L171 137ZM170 138L171 139L170 138ZM169 139L170 140L169 139Z" fill="#FF8101"/>
<path d="M54 140L55 141L54 140Z" fill="#FFFF01"/>
<path d="M168 140L169 141L168 140ZM167 141L168 142L167 141ZM166 142L167 143L166 142ZM165 143L166 144L165 143Z" fill="#FF8101"/>
<path d="M326 143L327 144L326 143ZM119 144L120 145L119 144Z" fill="#F3CB01"/>
<path d="M164 144L165 145L164 144ZM163 145L164 146L163 145ZM162 146L163 147L162 146ZM161 147L162 148L161 147ZM300 147L301 148L300 147ZM160 148L161 149L160 148ZM159 149L160 150L159 149ZM158 150L159 151L158 150ZM157 151L158 152L157 151Z" fill="#FF8101"/>
<path d="M301 151L302 152L301 151Z" fill="#FFFF01"/>
<path d="M328 151L329 152L328 151Z" fill="#FF8101"/>
<path d="M51 152L52 153L51 152Z" fill="#FFFF01"/>
<path d="M156 152L157 153L156 152ZM155 153L156 154L155 153Z" fill="#FF8101"/>
<path d="M121 154L122 155L121 154Z" fill="#FFFF01"/>
<path d="M154 154L155 155L154 154ZM122 155L123 156L122 155ZM153 155L154 156L153 155Z" fill="#FF8101"/>
<path d="M302 155L303 156L302 155Z" fill="#F3CB01"/>
<path d="M123 156L124 157L123 156ZM152 156L153 157L152 156ZM124 157L125 158L124 157ZM151 157L152 158L151 157ZM125 158L126 159L125 158ZM150 158L151 159L150 158ZM126 159L127 160L126 159ZM149 159L150 160L149 159ZM127 160L128 161L127 160ZM148 160L149 161L148 160ZM128 161L129 162L128 161ZM147 161L148 162L147 161Z" fill="#FF8101"/>
<path d="M303 161L304 162L303 161Z" fill="#F3CB01"/>
<path d="M129 162L130 163L129 162ZM146 162L147 163L146 162Z" fill="#FF8101"/>
<path d="M76 163L77 164L76 163Z" fill="#FFFF01"/>
<path d="M130 163L131 164L130 163ZM145 163L146 164L145 163Z" fill="#FF8101"/>
<path d="M49 165L50 166L49 165Z" fill="#FFFF01"/>
<path d="M133 165L134 166L133 165ZM142 165L143 166L142 165Z" fill="#F3CB01"/>
<path d="M304 171L305 172L304 171Z" fill="#FFFF01"/>
<path d="M75 174L76 175L75 174ZM75 184L76 185L75 184Z" fill="#FF8101"/>
<path d="M304 187L305 188L304 187Z" fill="#FFFF01"/>
<path d="M133 193.858C125.69 196.817 116.023 207.605 120.18 216C123.4 222.504 130.927 227.927 136 233L170 267C176.926 273.926 184.219 281.791 195 278.146C202.614 275.571 208.498 267.502 214 262L244 232C248.508 227.492 254.933 222.777 257.821 217C262.56 207.521 251.488 194.041 242 193.113C228.195 191.762 210.952 217.048 202 226C199.171 228.829 193.529 236.963 189 236.369C184.921 235.833 180.727 229.727 178 227C169.005 218.005 160.115 208.888 151 200.015C146.079 195.224 140.18 190.952 133 193.858Z" fill="#EFBB09"/>
<path d="M235 193L236 194L235 193ZM131 194L132 195L131 194ZM144 194L145 195L144 194ZM76 195L77 196L76 195ZM51 206L52 207L51 206ZM78 206L79 207L78 206ZM301 207L302 208L301 207ZM328 207L329 208L328 207Z" fill="#FFFF01"/>
<path d="M119 208L120 209L119 208Z" fill="#F3CB01"/>
<path d="M79 210L80 211L79 210Z" fill="#FFFF01"/>
<path d="M327 211L328 212L327 211Z" fill="#F3CB01"/>
<path d="M54 218L55 219L54 218ZM121 218L122 219L121 218Z" fill="#FFFF01"/>
<path d="M122 219L123 220L122 219ZM123 220L124 221L123 220Z" fill="#FF8101"/>
<path d="M55 221L56 222L55 221Z" fill="#F3CB01"/>
<path d="M124 221L125 222L124 221ZM125 222L126 223L125 222ZM126 223L127 224L126 223ZM56 224L57 225L56 224ZM127 224L128 225L127 224Z" fill="#FF8101"/>
<path d="M84 225L85 226L84 225Z" fill="#F3CB01"/>
<path d="M128 225L129 226L128 225ZM129 226L130 227L129 226Z" fill="#FF8101"/>
<path d="M57 227L58 228L57 227ZM85 227L86 228L85 227Z" fill="#FFFF01"/>
<path d="M130 227L131 228L130 227ZM131 228L132 229L131 228ZM132 229L133 230L132 229ZM133 230L134 231L133 230Z" fill="#FF8101"/>
<path d="M321 230L322 231L321 230Z" fill="#FFFF01"/>
<path d="M134 231L135 232L134 231ZM135 232L136 233L135 232ZM136 233L137 234L136 233ZM137 234L138 235L137 234ZM138 235L139 236L138 235ZM139 236L140 237L139 236Z" fill="#FF8101"/>
<path d="M90 237L91 238L90 237Z" fill="#FFFF01"/>
<path d="M140 237L141 238L140 237ZM141 238L142 239L141 238ZM142 239L143 240L142 239ZM317 239L318 240L317 239ZM143 240L144 241L143 240ZM144 241L145 242L144 241Z" fill="#FF8101"/>
<path d="M316 241L317 242L316 241ZM93 242L94 243L93 242Z" fill="#FFFF01"/>
<path d="M145 242L146 243L145 242ZM146 243L147 244L146 243Z" fill="#FF8101"/>
<path d="M315 243L316 244L315 243Z" fill="#FFFF01"/>
<path d="M147 244L148 245L147 244Z" fill="#FF8101"/>
<path d="M285 244L286 245L285 244Z" fill="#F3CB01"/>
<path d="M95 245L96 246L95 245Z" fill="#FFFF01"/>
<path d="M148 245L149 246L148 245ZM348 245L349 246L348 245Z" fill="#FF8101"/>
<path d="M349 245.465C324.158 249.826 326 273.641 326 293V439C326 456.496 328.905 483.687 354 480.685C379.77 477.603 379 451.498 379 432C379 379.387 380.277 326.595 378.985 274C378.616 258.962 365.388 242.589 349 245.465Z" fill="#EFBB09"/>
<path d="M149 246L150 247L149 246Z" fill="#FF8101"/>
<path d="M344 246L345 247L344 246Z" fill="#FFFF01"/>
<path d="M150 247L151 248L150 247Z" fill="#FF8101"/>
<path d="M67 248L68 249L67 248Z" fill="#FFFF01"/>
<path d="M151 248L152 249L151 248ZM152 249L153 250L152 249ZM365 249L366 250L365 249ZM153 250L154 251L153 250ZM154 251L155 252L154 251ZM155 252L156 253L155 252Z" fill="#FF8101"/>
<path d="M279 252L280 253L279 252ZM70 253L71 254L70 253Z" fill="#FFFF01"/>
<path d="M101 253L102 254L101 253ZM156 253L157 254L156 253ZM370 253L371 254L370 253ZM157 254L158 255L157 254ZM158 255L159 256L158 255ZM159 256L160 257L159 256ZM160 257L161 258L160 257Z" fill="#FF8101"/>
<path d="M330 257L331 258L330 257Z" fill="#F3CB01"/>
<path d="M161 258L162 259L161 258Z" fill="#FF8101"/>
<path d="M374 258L375 259L374 258ZM74 259L75 260L74 259Z" fill="#FFFF01"/>
<path d="M162 259L163 260L162 259Z" fill="#FF8101"/>
<path d="M273 259L274 260L273 259Z" fill="#F3CB01"/>
<path d="M163 260L164 261L163 260ZM164 261L165 262L164 261Z" fill="#FF8101"/>
<path d="M271 261L272 262L271 261Z" fill="#F3CB01"/>
<path d="M165 262L166 263L165 262ZM303 262L304 263L303 262Z" fill="#FF8101"/>
<path d="M327 262L328 263L327 262Z" fill="#FFFF01"/>
<path d="M77 263L78 264L77 263Z" fill="#F3CB01"/>
<path d="M166 263L167 264L166 263ZM167 264L168 265L167 264ZM168 265L169 266L168 265ZM169 266L170 267L169 266Z" fill="#FF8101"/>
<path d="M300 266L301 267L300 266ZM115 267L116 268L115 267Z" fill="#FFFF01"/>
<path d="M170 267L171 268L170 267ZM171 268L172 269L171 268Z" fill="#FF8101"/>
<path d="M378 268L379 269L378 268Z" fill="#FFFF01"/>
<path d="M172 269L173 270L172 269ZM173 270L174 271L173 270Z" fill="#FF8101"/>
<path d="M120 271L121 272L120 271Z" fill="#FFFF01"/>
<path d="M174 271L175 272L174 271ZM175 272L176 273L175 272ZM176 273L177 274L176 273Z" fill="#FF8101"/>
<path d="M294 273L295 274L294 273Z" fill="#FFFF01"/>
<path d="M177 274L178 275L177 274Z" fill="#FF8101"/>
<path d="M255 274L256 275L255 274ZM87 275L88 276L87 275ZM88 276L89 277L88 276Z" fill="#FFFF01"/>
<path d="M252 276L253 277L252 276ZM89 277L90 278L89 277ZM184 278L185 279L184 278ZM92 280L93 281L92 280Z" fill="#FF8101"/>
<path d="M93 281L94 282L93 281Z" fill="#FFFF01"/>
<path d="M136 281L137 282L136 281ZM138 282L139 283L138 282Z" fill="#FF8101"/>
<path d="M285 282L286 283L285 282ZM140 283L141 284L140 283Z" fill="#F3CB01"/>
<path d="M239 283L240 284L239 283ZM283 284L284 285L283 284Z" fill="#FFFF01"/>
<path d="M232 286L233 287L232 286Z" fill="#F3CB01"/>
<path d="M150 287L151 288L150 287Z" fill="#FF8101"/>
<path d="M226 288L227 289L226 288Z" fill="#FFFF01"/>
<path d="M156 289L157 290L156 289Z" fill="#F3CB01"/>
<path d="M277 289L278 290L277 289Z" fill="#FF8101"/>
<path d="M160 290L161 291L160 290Z" fill="#FFFF01"/>
<path d="M164 291L165 292L164 291Z" fill="#F3CB01"/>
<path d="M106 292L107 293L106 292ZM177 293L178 294L177 293ZM202 293L203 294L202 293Z" fill="#FFFF01"/>
<path d="M109 294L110 295L109 294Z" fill="#F3CB01"/>
<path d="M269 295L270 296L269 295ZM266 297L267 298L266 297Z" fill="#FF8101"/>
<path d="M263 299L264 300L263 299ZM424 300L425 301L424 300Z" fill="#FFFF01"/>
<path d="M425 300.519C414.033 302.894 404.551 312.77 403.184 324C400.39 346.971 403 371.848 403 395C403 415.059 400.371 437.164 403.301 457C405.252 470.21 419.109 483.085 433 480.532C444.144 478.483 454.391 468.405 455.815 457C458.839 432.779 456 406.423 456 382C456 363.073 458.814 341.655 455.674 323C453.383 309.381 438.991 297.488 425 300.519Z" fill="#EFBB09"/>
<path d="M434 300L435 301L434 300Z" fill="#FFFF01"/>
<path d="M421 301L422 302L421 301Z" fill="#F3CB01"/>
<path d="M258 302L259 303L258 302ZM123 303L124 304L123 303ZM417 303L418 304L417 303Z" fill="#FFFF01"/>
<path d="M441 303L442 304L441 303ZM125 304L126 305L125 304Z" fill="#FF8101"/>
<path d="M254 304L255 305L254 304Z" fill="#F3CB01"/>
<path d="M414 305L415 306L414 305Z" fill="#FFFF01"/>
<path d="M444 305L445 306L444 305ZM131 307L132 308L131 307Z" fill="#FF8101"/>
<path d="M248 307L249 308L248 307Z" fill="#F3CB01"/>
<path d="M133 308L134 309L133 308ZM244 309L245 310L244 309Z" fill="#FFFF01"/>
<path d="M449 310L450 311L449 310Z" fill="#F3CB01"/>
<path d="M239 311L240 312L239 311ZM408 311L409 312L408 311Z" fill="#FFFF01"/>
<path d="M450 311L451 312L450 311Z" fill="#FF8101"/>
<path d="M452 314L453 315L452 314Z" fill="#FFFF01"/>
<path d="M227 315L228 316L227 315Z" fill="#FF8101"/>
<path d="M156 316L157 317L156 316Z" fill="#F3CB01"/>
<path d="M160 317L161 318L160 317Z" fill="#FF8101"/>
<path d="M219 317L220 318L219 317Z" fill="#F3CB01"/>
<path d="M165 318L166 319L165 318Z" fill="#FF8101"/>
<path d="M214 318L215 319L214 318Z" fill="#F3CB01"/>
<path d="M404 318L405 319L404 318ZM454 318L455 319L454 318ZM208 319L209 320L208 319ZM198 320L199 321L198 320Z" fill="#FFFF01"/>
<path d="M274 363.529C244.121 370.377 253 413.586 253 436C253 444.345 251.235 455.068 254.133 463C258.481 474.898 271.329 483.4 284 480.471C312.884 473.794 304 429.531 304 408C304 399.616 305.747 388.938 302.728 381C298.565 370.054 286.01 360.777 274 363.529Z" fill="#EFBB09"/>
<path d="M260 371L261 372L260 371ZM296 371L297 372L296 371ZM255 378L256 379L255 378Z" fill="#FFFF01"/>
<path d="M302 380L303 381L302 380Z" fill="#F3CB01"/>
<path d="M378 457L379 458L378 457ZM403 458L404 459L403 458ZM303 461L304 462L303 461Z" fill="#FFFF01"/>
<path d="M377 461L378 462L377 461Z" fill="#FF8101"/>
<path d="M405 464L406 465L405 464ZM453 464L454 465L453 464Z" fill="#FFFF01"/>
<path d="M375 465L376 466L375 465Z" fill="#F3CB01"/>
<path d="M256 467L257 468L256 467Z" fill="#FF8101"/>
<path d="M300 467L301 468L300 467Z" fill="#F3CB01"/>
<path d="M374 467L375 468L374 467Z" fill="#FFFF01"/>
<path d="M330 468L331 469L330 468Z" fill="#FF8101"/>
<path d="M298 470L299 471L298 470Z" fill="#FFFF01"/>
<path d="M410 471L411 472L410 471Z" fill="#FF8101"/>
<path d="M370 472L371 473L370 472ZM412 473L413 474L412 473Z" fill="#FFFF01"/>
<path d="M446 473L447 474L446 473Z" fill="#FF8101"/>
<path d="M294 474L295 475L294 474Z" fill="#F3CB01"/>
<path d="M293 475L294 476L293 475Z" fill="#FFFF01"/>
<path d="M337 475L338 476L337 475Z" fill="#F3CB01"/>
<path d="M365 476L366 477L365 476Z" fill="#FFFF01"/>
<path d="M416 476L417 477L416 476Z" fill="#F3CB01"/>
<path d="M266 477L267 478L266 477ZM340 477L341 478L340 477Z" fill="#FFFF01"/>
<path d="M363 477L364 478L363 477Z" fill="#F3CB01"/>
<path d="M359 479L360 480L359 479Z" fill="#FF8101"/>
<path d="M355 480L356 481L355 480Z" fill="#FFFF01"/>
</svg>
