<svg width="54" height="55" viewBox="0 0 54 55" fill="none" xmlns="http://www.w3.org/2000/svg">
<path d="M40.4708 0.0947266C34.0714 13.0623 30.5357 19.529 26.9708 19.529C23.4058 19.529 19.8701 13.0623 13.5 0.0947266C19.8701 13.0623 22.9091 19.9054 21.1266 23.498C19.3442 27.0906 12.7695 27.467 0 27.467C13.237 27.467 19.8117 27.8434 21.3019 31.8123C22.7045 35.5076 19.6656 42.3165 13.5 54.8393C19.8993 41.8717 23.4351 35.405 27 35.405C30.5649 35.405 34.1007 41.8717 40.5 54.8393C33.7208 41.0505 30.7403 34.2074 33.2532 30.7859C35.474 27.7749 42.0195 27.467 54 27.467C40.5 27.467 33.9253 27.0564 32.6104 22.8479C31.4123 19.0842 34.4513 12.3096 40.4708 0.0947266Z" fill="white"/>
</svg>
